<svg xmlns="http://www.w3.org/2000/svg" width="494" height="500.375" viewBox="0 0 494 500.375">
  <defs>
    <style>
      .cls-1 {
        fill: #f54a7f;
        fill-rule: evenodd;
      }
    </style>
  </defs>
  <path id="cart-icon" class="cls-1" d="M115.689,117H522.6c15.957,0,26.785,11.968,23.936,28.5L503.224,349.522c-3.989,10.259-12.538,17.667-25.076,17.1H163.561l9.119,56.99H458.772c14.817,0,26.785,3.989,23.936,18.237l-2.28,5.7c14.248,11.968,19.377,25.076,19.377,43.313,0,34.764-27.926,63.259-62.69,62.689s-62.689-28.49-62.689-62.689a49.692,49.692,0,0,1,10.258-30.775H243.348c6.269,11.4,6.839,20.516,6.839,31.914,0,32.485-26.786,62.69-61.55,62.69S125.948,525.623,125.948,492c0-18.236,5.7-33.624,17.1-44.452L74.656,102.184H64.4c-6.839,0-10.828-6.269-11.4-12.538V65.71c0-6.839,3.419-11.4,11.4-11.4H83.775c10.828,0,20.516,7.979,22.8,19.377ZM188.637,462.15a28.709,28.709,0,1,1-28.709,28.709A28.708,28.708,0,0,1,188.637,462.15Zm248.478,0a28.709,28.709,0,1,1-28.709,28.709A28.708,28.708,0,0,1,437.115,462.15ZM122.528,155.755H504.364L471.31,329.006H154.443Z" transform="translate(-53 -54.313)"/>
</svg>
