<svg xmlns="http://www.w3.org/2000/svg" width="493.938" height="455.062" viewBox="0 0 493.938 455.062">
  <defs>
    <style>
      .cls-1 {
        fill: #f54a7f;
        fill-rule: evenodd;
      }
    </style>
  </defs>
  <path id="feed-icon" class="cls-1" d="M238.7,498.66L349.029,386.106c34.063-33.878,41.1-99.966-5.924-140.693-36.321-31.46-93.3-26.288-128.845,10.366-34.433-35.913-92.524-41.826-128.845-10.366C38.394,286.14,45.428,352.228,79.491,386.106L189.824,498.66C197.229,505.325,205,509.4,215,509.027S231.291,505.325,238.7,498.66Zm-27.4-21.474L100.224,363.891c-21.844-22.77-26.657-67.755,5.184-94.783,24.6-20.879,60.72-18.142,86.637,6.665l22.215,22.955,22.215-22.955c25.917-24.807,62.039-27.544,86.637-6.665,31.841,27.028,27.028,72.013,5.184,94.783L217.222,477.186M269.8,53.961c150.32,3.7,271.76,125.883,276.2,275.463,0,5.183-3.332,8.145-8.145,8.145h-14.81c-4.443-.37-8.146-4.073-8.146-7.405-2.962-134.4-111.073-242.511-245.1-245.843a8.213,8.213,0,0,1-8.146-8.145V60.625C261.651,56.553,264.985,53.843,269.8,53.961Zm0.74,86.637c101.818,3.333,184.9,86.261,189.566,188.826,0.247,5.43-4.2,8.145-8.145,8.145H436.407c-3.7,0-7.247-3.706-7.4-7.405-3.7-86.637-73.708-155.488-159.2-159.2-5.677-.247-7.9-4.2-8.146-8.886v-14.81C261.651,142.82,264.236,140.392,270.537,140.6Z" transform="translate(-52.063 -53.969)"/>
</svg>
