<svg xmlns="http://www.w3.org/2000/svg" width="493.625" height="436.75" viewBox="0 0 493.625 436.75">
  <defs>
    <style>
      .cls-1 {
        fill: #f54a7f;
        fill-rule: evenodd;
      }
    </style>
  </defs>
  <path id="home-icon" class="cls-1" d="M544,247l-12,14c-3,3.5-5.5,4-9,1l-32-27V475c0,7-7,11-14,11H121c-7,0-14-4-14-11V235L75,262c-3.5,3-6,2.5-9-1L54,247c-3-2.5-2-6.5,1-10L280,56c11-9,26.5-9,38,0L543,237C546,240.5,547,244.5,544,247ZM263,451h71V330H263V451ZM453,213L302,92h-6L145,213V451h85V309c0-7.5,7.5-13.5,15-14H353c7.5,0.5,15,6.5,15,14V451h85V213Z" transform="translate(-52.188 -49.25)"/>
</svg>
