<svg xmlns="http://www.w3.org/2000/svg" width="462" height="369" viewBox="0 0 462 369">
  <defs>
    <style>
      .cls-1 {
        fill: #f54a7f;
        fill-rule: evenodd;
      }
    </style>
  </defs>
  <path id="player-icon" class="cls-1" d="M500,415H98a30,30,0,0,1-30-30V147a30,30,0,0,1,30-30H500a30,30,0,0,1,30,30V385A30,30,0,0,1,500,415Zm-0.563-268.344H98.563V385.344H499.437V146.656ZM257.462,184.175l120.4,71.2c10.6,6.2,10.4,22,0,28.4l-120.8,71.2a16.311,16.311,0,0,1-24.8-14v-142.8C232.262,183.575,247.462,178.375,257.462,184.175Zm1.25,136.114a1.784,1.784,0,0,0,2.56,1.6l85.2-51.4c1.28-.8.96-1.44-0.32-2.56l-84.88-50.76s-2.56-.32-2.56,1.28v101.84ZM147.5,456h303a10,10,0,0,1,10,10v10a10,10,0,0,1-10,10h-303a10,10,0,0,1-10-10V466A10,10,0,0,1,147.5,456Z" transform="translate(-68 -117)"/>
</svg>
