<svg xmlns="http://www.w3.org/2000/svg" width="438.562" height="438.563" viewBox="0 0 438.562 438.563">
  <defs>
    <style>
      .cls-1 {
        fill: #f54a7f;
        fill-rule: evenodd;
      }
    </style>
  </defs>
  <path id="search-icon" class="cls-1" d="M398.72,367.375a173.028,173.028,0,0,0,38-109c-0.084-98.786-80.958-178.983-178-179s-177.977,80.378-178,178,79.98,179.44,178,179a179.423,179.423,0,0,0,109-38s0.171,8.375,0,14,1.473,9.091,6,14l86,86c7.893,7.733,21.805,7.069,29,0l24-24c8.506-9.627,9.017-22.156,0-31l-85-84c-3.233-4.2-10.539-7.171-15-7ZM116.87,257.225c-0.207,79.483,62.273,142.5,140.4,143s144.342-64.726,144.3-143-64.533-141.627-143-141.7S117.069,180.114,116.87,257.225Z" transform="translate(-80.719 -79.375)"/>
</svg>
