<svg xmlns="http://www.w3.org/2000/svg" width="426" height="426" viewBox="0 0 426 426">
  <defs>
    <style>
      .cls-1 {
        fill: #f54a7f;
        fill-rule: evenodd;
      }
    </style>
  </defs>
  <path id="user-icon" class="cls-1" d="M299,514.5c-117.637,0-213-95.363-213-213s95.363-213,213-213,213,95.363,213,213S416.637,514.5,299,514.5Zm0-32.049a180.287,180.287,0,0,0,121.841-47.17c-5.047-8.042-27.783-40.273-67.5-39.349-20.047,5.8-35.874,8.441-54.866,8.441s-35.873-3.693-53.81-8.441c-26.478-1.038-54.479,16.831-68.938,38.014A180.3,180.3,0,0,0,299,482.451Zm0-361.9A180.965,180.965,0,0,0,151.6,406.473C174.258,377.544,207.165,359,246.772,359c9.5,0,23.74,9.5,51.7,9.5s42.192-9.5,52.756-9.5c37.456,0,71.22,18.465,93.9,48.535l-0.559,1.446A180.955,180.955,0,0,0,299,120.549Zm-0.528,218.407c-47.783,0-86.518-39.208-86.518-87.574s38.735-87.574,86.518-87.574,86.519,39.209,86.519,87.574S346.255,338.956,298.472,338.956Zm0-139.472a51.9,51.9,0,1,0,51.9,51.9A51.9,51.9,0,0,0,298.472,199.484Z" transform="translate(-86 -88.5)"/>
</svg>
